<svg id="icn_ln" xmlns="http://www.w3.org/2000/svg" width="36" height="36" viewBox="0 0 42 42"><circle id="Ellipse_2447" data-name="Ellipse 2447" cx="21" cy="21" r="21" fill="currentcolor" opacity="0" class="out"></circle><g id="g5891" transform="translate(11.563 12.167)"><g id="shapes" transform="translate(0 0)"><rect id="rect11" width="4.039" height="12.149" transform="translate(0.238 5.858)" fill="currentcolor"></rect><path id="path13-0" d="M58.285,54.28a2.105,2.105,0,1,0-.053,4.2h.026a2.106,2.106,0,1,0,.027-4.2Z" transform="translate(-56 -54.28)" fill="currentcolor"></path><path id="path15" d="M201.941,172.6a4.011,4.011,0,0,0-3.639,2.006v-1.72h-4.038c.054,1.14,0,12.149,0,12.149H198.3v-6.785a2.76,2.76,0,0,1,.133-.986,2.21,2.21,0,0,1,2.072-1.477c1.461,0,2.046,1.115,2.046,2.747v6.5h4.038v-6.967C206.591,174.337,204.6,172.6,201.941,172.6Z" transform="translate(-187.752 -167.028)" fill="currentcolor"></path></g></g></svg>