<svg id="icn_in" xmlns="http://www.w3.org/2000/svg" width="36" height="36" viewBox="0 0 42 42" class="in"><circle id="Ellipse_2445" data-name="Ellipse 2445" cx="21" cy="21" r="21" fill="currentcolor" opacity="0" class="in"></circle><g id="Instagram-Glyph-Black-Logo.wine" transform="translate(10.439 10.441)"><path id="Path_4177" data-name="Path 4177" d="M10.56,0C7.692,0,7.333.012,6.206.064A7.752,7.752,0,0,0,3.643.554a5.176,5.176,0,0,0-1.87,1.218A5.176,5.176,0,0,0,.554,3.643,7.751,7.751,0,0,0,.064,6.206C.012,7.333,0,7.692,0,10.56s.012,3.228.064,4.354a7.751,7.751,0,0,0,.491,2.563,5.177,5.177,0,0,0,1.218,1.87,5.177,5.177,0,0,0,1.87,1.218,7.753,7.753,0,0,0,2.563.491c1.126.051,1.486.064,4.354.064s3.228-.012,4.354-.064a7.752,7.752,0,0,0,2.563-.491,5.4,5.4,0,0,0,3.088-3.088,7.752,7.752,0,0,0,.491-2.563c.051-1.126.064-1.486.064-4.354s-.012-3.228-.064-4.354a7.752,7.752,0,0,0-.491-2.563,5.176,5.176,0,0,0-1.218-1.87A5.177,5.177,0,0,0,17.477.554,7.752,7.752,0,0,0,14.914.064C13.788.012,13.428,0,10.56,0Zm0,1.9c2.82,0,3.154.011,4.267.062a5.842,5.842,0,0,1,1.961.364A3.271,3.271,0,0,1,18,3.118a3.272,3.272,0,0,1,.79,1.214,5.842,5.842,0,0,1,.364,1.961c.051,1.114.062,1.448.062,4.267s-.011,3.154-.062,4.267a5.842,5.842,0,0,1-.364,1.961,3.5,3.5,0,0,1-2,2,5.842,5.842,0,0,1-1.961.364c-1.113.051-1.447.062-4.267.062s-3.154-.011-4.267-.062a5.841,5.841,0,0,1-1.961-.364A3.271,3.271,0,0,1,3.118,18a3.272,3.272,0,0,1-.79-1.214,5.843,5.843,0,0,1-.364-1.961C1.913,13.714,1.9,13.38,1.9,10.56s.011-3.154.062-4.267a5.842,5.842,0,0,1,.364-1.961,3.272,3.272,0,0,1,.79-1.214,3.272,3.272,0,0,1,1.214-.79,5.842,5.842,0,0,1,1.961-.364C7.406,1.913,7.74,1.9,10.56,1.9" transform="translate(0 0)" fill="#fff"></path><path id="Path_4178" data-name="Path 4178" d="M168.831,126.709a3.52,3.52,0,1,1,3.52-3.52A3.52,3.52,0,0,1,168.831,126.709Zm0-8.943a5.423,5.423,0,1,0,5.423,5.423,5.423,5.423,0,0,0-5.423-5.423m6.9-.214a1.267,1.267,0,1,1-1.267-1.267,1.267,1.267,0,0,1,1.267,1.267" transform="translate(-158.271 -112.629)" fill="#fff "></path></g></svg>