<svg xmlns="http://www.w3.org/2000/svg" xmlns:xlink="http://www.w3.org/1999/xlink" width="36" height="36" viewBox="0 0 36 36" color="#fff"><defs><clipPath id="clip-path"><rect id="Rectangle_9832" data-name="Rectangle 9832" width="36" height="36" transform="translate(694 228)" fill="#fff"></rect></clipPath></defs><g id="Mask_Group_115" data-name="Mask Group 115" transform="translate(-694 -228)" clip-path="url(#clip-path)"><path id="mindfulness_FILL0_wght400_GRAD0_opsz48" d="M134.85-858.85h2.7v-11.7h-2.7Zm5.4-2.7h2.7v-7.2h-2.7Zm-10.8-.9h2.7v-6.3h-2.7ZM125.4-844v-7.74a16.619,16.619,0,0,1-3.982-5.468A15.788,15.788,0,0,1,120-863.8a15.623,15.623,0,0,1,4.725-11.475A15.623,15.623,0,0,1,136.2-880a16.006,16.006,0,0,1,9.967,3.308,15.044,15.044,0,0,1,5.647,8.617l2.475,9.81a1.222,1.222,0,0,1-.225,1.148,1.3,1.3,0,0,1-1.08.518H148.8v6.3a2.6,2.6,0,0,1-.793,1.907,2.6,2.6,0,0,1-1.907.793h-4.5v3.6h-2.7v-6.3h7.2v-9h5.13l-2.025-8.1a12.494,12.494,0,0,0-4.725-7.133,13.336,13.336,0,0,0-8.28-2.767,13.1,13.1,0,0,0-9.562,3.892,12.847,12.847,0,0,0-3.937,9.5,13.169,13.169,0,0,0,1.185,5.508,14.492,14.492,0,0,0,3.36,4.638l.855.81V-844ZM136.965-860.65Z" transform="translate(574.827 1108)" fill="#fff"></path></g></svg>