<svg xmlns="http://www.w3.org/2000/svg" xmlns:xlink="http://www.w3.org/1999/xlink" width="36" height="36" viewBox="0 0 40 40" color="#fff"><defs><clipPath id="clip-path"><rect id="Rectangle_9584" data-name="Rectangle 9584" width="40" height="40" transform="translate(694 228)" fill="#fff"></rect></clipPath></defs><g id="Mask_Group_29" data-name="Mask Group 29" transform="translate(-694 -228)" clip-path="url(#clip-path)"><path id="autorenew_FILL0_wght400_GRAD0_opsz48" d="M9.642,28.878a12.168,12.168,0,0,1-1.277-3.307A15.825,15.825,0,0,1,8,22.173a14.04,14.04,0,0,1,4.31-10.285A14.04,14.04,0,0,1,22.6,7.578h1.961L20.908,3.929,22.687,2.15l6.8,6.8-6.8,6.8-1.824-1.824,3.6-3.6H22.6a11.416,11.416,0,0,0-8.37,3.489,11.415,11.415,0,0,0-3.489,8.37,12.1,12.1,0,0,0,.251,2.509,18.379,18.379,0,0,0,.616,2.235ZM22.413,42.15l-6.8-6.8,6.8-6.8,1.779,1.779-3.649,3.649H22.6a11.416,11.416,0,0,0,8.37-3.489,11.415,11.415,0,0,0,3.489-8.37,13.269,13.269,0,0,0-.228-2.509,10.613,10.613,0,0,0-.684-2.235L35.5,15.423a12.768,12.768,0,0,1,1.3,3.307,14.932,14.932,0,0,1,.388,3.4,14.04,14.04,0,0,1-4.31,10.285A14.04,14.04,0,0,1,22.6,36.723H20.543l3.649,3.649Z" transform="translate(691.405 225.85)" fill="#fff"></path></g></svg>