<svg xmlns="http://www.w3.org/2000/svg" xmlns:xlink="http://www.w3.org/1999/xlink" width="36" height="36" viewBox="0 0 36 36" color="#fff"><defs><clipPath id="clip-path"><rect id="Rectangle_9834" data-name="Rectangle 9834" width="36" height="36" transform="translate(694 228)" fill="#fff"></rect></clipPath></defs><g id="Group_7438" data-name="Group 7438" transform="translate(-694 -228)" clip-path="url(#clip-path)"><path id="thumb_up_FILL0_wght400_GRAD0_opsz48" d="M106.365,170.368H87.291v-22L99.234,136l1.675,1.332a1.291,1.291,0,0,1,.387.6,3.014,3.014,0,0,1,.129.945v.43l-1.933,9.064h12.845a2.643,2.643,0,0,1,2.578,2.578v3.516a3.207,3.207,0,0,0,.064.63,1.032,1.032,0,0,1-.064.623L109.5,168.177a3.618,3.618,0,0,1-1.271,1.552A3.15,3.15,0,0,1,106.365,170.368Zm-16.5-2.578h17.055l5.413-12.845v-4H96.313l2.277-10.7-8.721,9.193Zm0-18.344v0Zm-2.578-1.074v2.578H81.578v16.84h5.714v2.578H79v-22Z" transform="translate(615 92.816)" fill="#fff"></path></g></svg>