<svg id="icn_yt" xmlns="http://www.w3.org/2000/svg" width="36" height="36" viewBox="0 0 42 42" class="in"><path id="Path_85481" data-name="Path 85481" d="M20.5,0A20.5,20.5,0,1,1,0,20.5,20.5,20.5,0,0,1,20.5,0Z" fill="currentcolor" opacity="0" class="out"></path><g id="_5296521_play_video_vlog_youtube_youtube_logo_icon" data-name="5296521_play_video_vlog_youtube_youtube logo_icon" transform="translate(9.379 12.717)"><path id="Subtraction_8" data-name="Subtraction 8" d="M11.119,15.567c-.069,0-6.973-.005-8.686-.465a2.794,2.794,0,0,1-1.97-1.966A29.174,29.174,0,0,1,0,7.784,29.182,29.182,0,0,1,.464,2.43,2.783,2.783,0,0,1,2.433.464C4.146.005,11.05,0,11.119,0s6.974.005,8.689.464A2.784,2.784,0,0,1,21.777,2.43a29.126,29.126,0,0,1,.465,5.354,29.118,29.118,0,0,1-.465,5.353A2.8,2.8,0,0,1,19.809,15.1C18.093,15.562,11.189,15.567,11.119,15.567ZM8.9,4.447h0v6.67l5.778-3.335L8.9,4.448Z" transform="translate(0 0)" fill="#fff" class="in"></path></g></svg>